# xmcd
#
# Track frame offsets: 
#        182
#        10527
#        26050
#        39937
#        54632
#        66395
#        82295
#        103017
#        112580
#        126947
#        140582
#        157930
#        171655
#
# Disc length: 2466 seconds
#
# Revision: 5
# Processed by: cddbd v1.5.2PL0 Copyright (c) Steve Scherf et al.
# Submitted via: ExactAudioCopy v1.0b1
#
DISCID=ad09a00d
DTITLE=The Bottle Rockets - 24 Hours a Day
DYEAR=1997
DGENRE=Country
TTITLE0=Kit Kat Clock
TTITLE1=When I Was Dumb
TTITLE2=24 Hours a Day
TTITLE3=Smokin' 100's Alone
TTITLE4=Slo Toms
TTITLE5=Indianapolis
TTITLE6=Things You Didn't Know
TTITLE7=One of You
TTITLE8=Perfect Far Away
TTITLE9=Waitin' on a Train
TTITLE10=Dohack Joe
TTITLE11=Rich Man
TTITLE12=Turn for the Worse
EXTD=
EXTT0=
EXTT1=
EXTT2=
EXTT3=
EXTT4=
EXTT5=
EXTT6=
EXTT7=
EXTT8=
EXTT9=
EXTT10=
EXTT11=
EXTT12=
PLAYORDER=
